PathFileType	4	(X/Y/Z)	/Users/mathieubourgeois/Desktop/Analyse/Traitement/Sujet_08/Transformed_Static_Sujet_08_Tpose.trc
DataRate	CameraRate	NumFrames	NumMarkers	Units	OrigDataRate	OrigDataStartFrame	OrigNumFrames
120.000000	120.000000	5	35	mm	120.000000	0	324
Frame#	Time	RFHD			RANE			STRN			LANI			LKNE			T10			RHUM			RWRB			C7			LFWT			LTOE			LWRA			LBWT			RBWT			RFWT			LKNI			RKNI			RKNE			LANE			RANI			LHEE			RTOE			LHUM			LRAD			RRAD			RWRA			LWRB			LFHD			LBHD			RBHD			RSHO			LSHO			CLAV			LCAR			RCAR			
		X1	Y1	Z1	X2	Y2	Z2	X3	Y3	Z3	X4	Y4	Z4	X5	Y5	Z5	X6	Y6	Z6	X7	Y7	Z7	X8	Y8	Z8	X9	Y9	Z9	X10	Y10	Z10	X11	Y11	Z11	X12	Y12	Z12	X13	Y13	Z13	X14	Y14	Z14	X15	Y15	Z15	X16	Y16	Z16	X17	Y17	Z17	X18	Y18	Z18	X19	Y19	Z19	X20	Y20	Z20	X21	Y21	Z21	X22	Y22	Z22	X23	Y23	Z23	X24	Y24	Z24	X25	Y25	Z25	X26	Y26	Z26	X27	Y27	Z27	X28	Y28	Z28	X29	Y29	Z29	X30	Y30	Z30	X31	Y31	Z31	X32	Y32	Z32	X33	Y33	Z33	X34	Y34	Z34	X35	Y35	Z35	

1	0	-759.7669677734375	1638.888305664062	396.9645690917966	-843.9854736328125	82.59034729003908	204.5052947998046	-692.0015869140625	1255.658935546875	408.7282714843749	-591.6310424804688	92.02180480957033	232.523468017578	-527.4662475585938	498.9158935546875	296.3812561035155	-677.049560546875	1215.490234375	182.1899566650389	-1086.432250976562	1376.109741210938	247.967575073242	-1337.201293945312	1454.876220703125	229.7274780273435	-687.653564453125	1470.052856445312	219.7591094970701	-558.7573852539062	968.6043090820312	364.027618408203	-527.7864990234375	34.5822448730469	399.6517028808593	-19.5552558898926	1415.509155273438	216.7397003173827	-620.3814697265625	1007.395385742188	213.1481781005858	-753.6600341796875	1007.995178222656	213.8569183349608	-796.0661010742188	970.6004638671875	372.4173278808592	-630.0630493164062	439.0013427734375	255.2299346923827	-748.3211669921875	434.2117614746094	256.284698486328	-852.3931884765625	507.2847595214844	261.9608459472655	-513.931396484375	80.10149383544923	190.8385162353515	-764.9225463867188	101.400131225586	228.8732452392577	-561.4395141601562	52.63276290893555	154.8459167480468	-813.904052734375	37.95658111572268	394.5481872558593	-279.6104431152344	1387.685791015625	270.377716064453	-272.1907653808594	1429.94775390625	204.835723876953	-1092.716918945312	1412.867797851562	193.5539093017576	-1340.597045898438	1400.4677734375	188.1589660644529	-29.13374710083011	1486.97314453125	237.7721405029296	-631.7871704101562	1654.196655273438	396.4492187499998	-619.4999389648438	1636.880004882812	242.613571166992	-756.9346313476562	1632.45361328125	229.8647308349607	-792.1932373046875	1476.103881835938	246.5296325683592	-572.6184692382812	1476.1416015625	242.2951660156249	-688.7745971679688	1419.544189453125	348.1853027343748	71.12694549560544	1465.84912109375	207.1723480224609	-1442.255249023438	1426.502319335938	186.2362518310544	
2	0.008333333333333333	-759.878662109375	1638.828247070312	397.0592346191404	-843.978759765625	82.60054779052736	204.4946899414061	-691.9581909179688	1255.637939453125	408.7945556640624	-591.6469116210938	92.02012634277345	232.5395202636718	-527.4647827148438	498.8982238769531	296.4192810058593	-677.0123291015625	1215.512817382812	182.2726440429686	-1086.39794921875	1376.10595703125	248.0752868652341	-1337.18505859375	1454.822509765625	229.8382568359372	-687.622314453125	1470.044189453125	219.8824310302733	-558.7493896484375	968.5885620117188	364.0938720703124	-527.7858276367188	34.57963180541994	399.6521606445312	-19.50039863586428	1415.357788085938	216.4579162597655	-620.3631591796875	1007.376647949219	213.1948089599608	-753.6343383789062	1007.998840332031	213.897247314453	-796.0692138671875	970.6044921875	372.4652099609373	-630.0728149414062	438.9944458007812	255.2294006347655	-748.3153686523438	434.2140197753906	256.3116760253905	-852.38330078125	507.2868041992188	261.9869079589842	-513.9229736328125	80.10276031494142	190.8270111083984	-764.9163818359375	101.3992233276367	228.8786621093749	-561.4346313476562	52.63531875610352	154.8526306152343	-813.8912353515625	37.95313262939455	394.5529174804686	-279.5903625488282	1387.619873046875	270.4448242187499	-272.1669311523438	1429.88623046875	204.8994903564452	-1092.6875	1412.882080078125	193.6866912841795	-1340.558837890625	1400.422607421875	188.2982025146482	-29.0998229980469	1486.870239257812	237.7891082763671	-631.9170532226562	1654.165405273438	396.7072143554686	-619.461669921875	1636.899658203125	242.8926849365232	-756.8591918945312	1632.455688476562	229.9717559814451	-792.1575927734375	1476.109985351562	246.658721923828	-572.587158203125	1476.140014648438	242.4120178222655	-688.7374267578125	1419.513549804688	348.2989196777342	71.16563415527341	1465.694946289062	207.1610412597655	-1442.237060546875	1426.41357421875	186.3497772216794	
3	0.01666666666666667	-761.1213989257812	1638.85791015625	397.6268310546873	-843.9752197265625	82.61398315429689	204.5163421630858	-691.9254760742188	1255.595703125	408.8695068359374	-591.6416015625	92.03020477294923	232.546401977539	-527.4598388671875	498.8915710449219	296.4557189941405	-676.976318359375	1215.524658203125	182.3365631103514	-1086.344848632812	1376.099853515625	248.1929626464841	-1337.171508789062	1454.772094726562	229.960021972656	-687.5957641601562	1470.044189453125	220.0221710205076	-558.7467651367188	968.5709228515625	364.167022705078	-527.7837524414062	34.58020401000979	399.6606445312499	-19.51266288757327	1415.260620117188	216.7015228271484	-620.341552734375	1007.369323730469	213.2721557617186	-753.6190185546875	1008.00537109375	213.9530639648436	-796.07177734375	970.6058959960938	372.4973754882811	-630.0609130859375	438.9998168945312	255.2540740966796	-748.3223266601562	434.2140808105469	256.3452758789061	-852.3685913085938	507.2834777832031	262.0007934570311	-513.9199829101562	80.10330963134767	190.8273010253906	-764.9141235351562	101.4010162353516	228.8781585693359	-561.4434814453125	52.62955474853516	154.8633422851562	-813.8919677734375	37.95288467407229	394.5551757812499	-279.5581359863282	1387.567626953125	270.5158691406249	-272.152587890625	1429.83203125	204.9480743408202	-1092.642944335938	1412.877197265625	193.8133850097654	-1340.532958984375	1400.394409179688	188.3935699462888	-29.04751777648929	1486.735473632812	237.8078002929687	-632.051513671875	1654.12548828125	396.9653015136717	-619.4312133789062	1636.909912109375	243.1534576416014	-756.7733154296875	1632.470581054688	230.0756683349607	-792.1240844726562	1476.103759765625	246.7728881835936	-572.5576782226562	1475.79541015625	242.3541412353514	-688.7189331054688	1419.4931640625	348.4127807617186	71.19052886962888	1465.545043945312	207.1266021728515	-1442.206298828125	1426.353637695312	186.4653625488279	
4	0.025	-761.318603515625	1638.937255859375	398.1494140624998	-844.084716796875	82.4387664794922	204.4628295898436	-691.9065551757812	1255.576293945312	408.9646606445311	-592.6605224609375	91.96719360351564	231.5919494628905	-527.4640502929688	498.8802795410156	296.495635986328	-676.9461669921875	1215.543090820312	182.4095916748045	-1086.314086914062	1376.09619140625	248.306930541992	-1337.16845703125	1454.710693359375	230.053283691406	-687.6361694335938	1469.846801757812	220.5765838623045	-558.74658203125	968.5606079101562	364.2386169433593	-527.7830810546875	34.5763740539551	399.6525573730468	-19.49524688720706	1415.119873046875	216.7260437011718	-620.3240966796875	1007.371520996094	213.3237915039061	-753.5128173828125	1008.137390136719	213.569122314453	-796.0344848632812	970.4570922851562	371.9734802246092	-630.0625	438.9854431152344	255.2847442626952	-748.3007202148438	434.2133483886719	256.360870361328	-852.3712768554688	507.3337707519531	262.1176452636717	-514.15283203125	80.53446197509767	191.0455627441406	-765.0410766601562	101.5950164794922	229.1280670166015	-561.4456787109375	52.62225341796876	154.8570861816406	-813.9008178710938	37.96786117553713	394.5684509277343	-279.5435180664063	1387.504760742188	270.5904846191405	-272.4199829101562	1430.230102539062	205.170440673828	-1092.608276367188	1412.886596679688	193.9476776123045	-1340.499145507812	1400.37353515625	188.4779357910154	-29.08237457275393	1486.411376953125	238.4646606445312	-632.2265625	1654.092895507812	397.3906860351561	-619.4248046875	1637.064819335938	243.4576568603514	-756.3884887695312	1632.480834960938	229.0150604248045	-792.0431518554688	1475.851318359375	246.697540283203	-572.5247192382812	1475.7841796875	242.4694061279295	-688.6965942382812	1419.478881835938	348.538360595703	71.21422576904294	1465.394775390625	207.0812530517577	-1442.182861328125	1426.265869140625	186.5569000244138	
5	0.03333333333333333	-761.1793212890625	1638.60546875	398.1378173828123	-843.9317016601562	82.65825653076173	204.6182250976561	-691.9620971679688	1255.442626953125	409.1718139648436	-591.5767822265625	92.02639007568361	232.4935150146484	-527.4663696289062	498.6981506347656	296.5203247070311	-676.9442749023438	1215.5478515625	182.5347595214842	-1086.269653320312	1376.190307617188	248.7666778564451	-1337.18017578125	1454.332275390625	230.2721557617185	-687.6029052734375	1469.92041015625	220.6871948242186	-558.9136352539062	968.3732299804688	364.2472839355468	-527.5510864257812	34.51116180419924	399.7103271484374	-19.21473693847659	1414.433959960938	216.2977447509765	-620.2471313476562	1007.155639648438	213.3918304443358	-753.4984741210938	1008.065795898438	213.6547241210936	-796.08984375	970.32373046875	372.1645202636717	-629.8492431640625	438.9171752929688	255.7826385498046	-748.2391357421875	434.111083984375	256.395050048828	-852.3328857421875	507.0063171386719	261.733428955078	-513.9043579101562	80.33440399169923	191.0087585449218	-764.8724975585938	101.7087097167969	229.6877136230468	-561.3838500976562	52.35039138793946	154.7999572753906	-813.6381225585938	37.94429779052737	394.6271667480468	-279.4061584472657	1387.223999023438	270.7565612792968	-272.4131164550781	1430.074096679688	205.2471618652343	-1092.578979492188	1412.925415039062	193.977828979492	-1340.4755859375	1400.363159179688	188.5104980468747	-29.23901939392093	1486.253051757812	238.6979980468749	-632.0424194335938	1654.284912109375	398.0706176757811	-619.247802734375	1636.760131835938	243.4977722167967	-757.146484375	1632.138671875	229.3399353027342	-792.0534057617188	1475.81005859375	247.0001068115233	-572.4669189453125	1476.026245117188	242.6176147460936	-688.7088623046875	1419.364135742188	348.739532470703	71.42254638671872	1465.179443359375	206.9192352294921	-1442.292358398438	1425.983032226562	186.7652282714841	
